<?xml version="1.0" standalone="no"?>
<!DOCTYPE svg PUBLIC "-//W3C//DTD SVG 20010904//EN"
 "http://www.w3.org/TR/2001/REC-SVG-20010904/DTD/svg10.dtd">
<svg version="1.0" xmlns="http://www.w3.org/2000/svg"
 width="496.000000pt" height="143.000000pt" viewBox="0 0 496.000000 143.000000"
 preserveAspectRatio="xMidYMid meet">
<metadata>
Created by potrace 1.16, written by Peter Selinger 2001-2019
</metadata>
<g transform="translate(0.000000,143.000000) scale(0.100000,-0.100000)"
fill="#000000" stroke="none">
<path d="M2636 1310 c-60 -18 -106 -85 -106 -155 0 -40 15 -37 -171 -35 l-106
1 -74 -96 -74 -96 -3 191 -2 190 -90 0 -90 0 0 -385 0 -385 90 0 90 0 0 132 0
133 23 -41 c12 -23 47 -82 77 -133 l54 -91 104 0 c80 0 101 3 95 12 -4 7 -51
80 -105 162 l-97 149 26 31 c14 17 60 71 102 120 l76 89 3 -61 3 -62 34 0 35
0 0 -220 0 -220 90 0 90 0 0 220 0 220 35 0 35 0 0 70 0 70 -35 0 c-27 0 -35
4 -35 18 0 26 12 40 43 47 26 7 27 10 27 71 l0 64 -57 -1 c-32 0 -71 -5 -87
-9z"/>
<path d="M1075 1127 c-51 -24 -119 -76 -112 -84 3 -2 22 3 42 12 21 8 39 14
40 13 1 -2 12 -28 24 -59 l22 -56 37 18 c77 40 165 11 202 -66 16 -34 20 -55
16 -81 -6 -30 -10 -34 -29 -28 -12 3 -28 11 -35 17 -7 5 -14 8 -16 6 -2 -2 17
-52 41 -110 l45 -106 89 33 c130 48 132 50 86 69 -33 14 -37 19 -30 38 4 12 8
58 8 102 0 94 -24 154 -86 216 -61 61 -111 82 -209 86 -74 4 -92 1 -135 -20z"/>
<path d="M1805 1128 c-11 -6 -30 -20 -42 -31 l-23 -20 0 21 c0 21 -4 22 -85
22 l-85 0 0 -290 0 -290 90 0 90 0 0 180 c0 176 1 182 23 204 13 13 43 27 65
31 l42 7 0 89 0 89 -27 0 c-16 0 -37 -6 -48 -12z"/>
<path d="M2995 1127 c-67 -23 -101 -44 -143 -92 -134 -152 -85 -393 96 -482
49 -24 69 -28 142 -28 104 1 159 23 224 90 143 146 101 402 -80 491 -66 32
-175 42 -239 21z m154 -175 c68 -36 89 -122 49 -193 -67 -120 -238 -70 -238
71 0 107 99 170 189 122z"/>
<path d="M3645 1124 c-16 -9 -36 -23 -42 -32 -12 -14 -13 -13 -13 6 0 21 -4
22 -90 22 l-90 0 0 -290 0 -290 95 0 95 0 0 180 c0 178 0 181 24 205 14 14 42
27 65 31 l41 7 0 88 0 89 -27 0 c-16 -1 -41 -8 -58 -16z"/>
<path d="M3950 1131 c-90 -29 -165 -95 -202 -176 -31 -67 -31 -180 -1 -246 30
-66 86 -124 151 -156 75 -37 191 -39 263 -6 65 29 123 85 153 146 39 77 39 77
-66 77 -92 0 -93 0 -110 -29 -34 -60 -140 -66 -193 -11 -56 58 -43 184 24 223
55 32 150 12 173 -37 11 -25 14 -26 105 -26 93 0 94 0 88 23 -27 90 -90 163
-174 200 -50 22 -168 32 -211 18z"/>
<path d="M4557 1126 c-131 -49 -211 -164 -211 -301 1 -161 120 -288 283 -302
71 -7 126 8 188 50 41 29 122 126 123 150 0 4 -42 7 -92 7 -86 0 -95 -2 -117
-25 -51 -54 -201 -16 -201 52 0 4 96 8 212 8 l213 0 3 56 c6 111 -67 233 -172
286 -62 32 -170 41 -229 19z"/>
<path d="M0 1108 c0 -12 26 -98 141 -470 l30 -98 84 0 84 0 10 38 c45 173 73
279 77 292 6 14 23 -43 75 -248 l22 -83 85 3 85 3 88 285 c49 157 89 286 89
288 0 1 -42 2 -94 2 -66 0 -95 -4 -98 -12 -2 -7 -20 -79 -39 -160 -19 -82 -37
-148 -41 -148 -5 0 -8 5 -8 12 0 6 -19 78 -41 160 l-41 148 -78 0 -77 0 -44
-169 -43 -169 -41 167 -41 166 -92 3 c-70 2 -92 0 -92 -10z"/>
<path d="M1601 393 c16 -60 39 -145 50 -190 l21 -83 42 0 42 0 29 118 29 117
29 -118 30 -118 40 3 41 3 48 175 c26 96 48 181 48 188 0 8 -15 12 -43 12
l-43 0 -23 -97 c-13 -54 -27 -104 -30 -111 -4 -7 -15 22 -25 64 -35 149 -33
144 -71 144 -38 0 -34 7 -69 -131 -27 -106 -23 -110 -62 55 l-18 76 -47 0 -47
0 29 -107z"/>
<path d="M2730 449 l0 -50 -26 20 c-34 27 -97 28 -144 2 -100 -53 -107 -214
-11 -278 41 -28 124 -31 159 -7 20 14 22 14 22 0 0 -12 10 -16 40 -16 l40 0 0
190 0 190 -40 0 -40 0 0 -51z m-21 -115 c30 -38 27 -80 -8 -115 -16 -16 -39
-29 -50 -29 -76 0 -117 84 -70 144 16 21 29 26 64 26 35 0 48 -5 64 -26z"/>
<path d="M3630 310 l0 -190 115 0 115 0 0 40 0 40 -75 0 -75 0 0 40 0 40 75 0
75 0 0 40 0 40 -75 0 -75 0 0 30 0 30 75 0 75 0 0 40 0 40 -115 0 -115 0 0
-190z"/>
<path d="M2270 423 c-17 -12 -25 -13 -28 -5 -2 7 -19 12 -38 12 l-34 0 0 -155
0 -155 40 0 40 0 0 101 c0 123 7 139 61 139 51 0 59 -19 59 -146 l0 -94 40 0
40 0 0 115 c0 124 -10 160 -52 189 -30 21 -97 20 -128 -1z"/>
<path d="M2888 424 c-33 -17 -48 -43 -48 -81 0 -41 17 -59 82 -87 63 -28 75
-40 58 -61 -17 -21 -37 -19 -57 5 -12 14 -30 20 -56 20 -35 0 -38 -2 -32 -22
4 -13 20 -35 36 -50 24 -23 38 -28 83 -28 60 0 100 27 112 76 14 57 -11 85
-117 129 -13 6 -24 17 -24 25 0 21 43 26 51 6 4 -11 19 -16 45 -16 42 0 45 5
27 45 -23 51 -103 70 -160 39z"/>
<path d="M3174 426 c-45 -20 -86 -78 -91 -130 -7 -57 23 -122 72 -155 30 -20
44 -23 101 -19 63 4 69 6 104 45 69 74 60 186 -20 243 -41 29 -121 37 -166 16z
m116 -76 c10 -5 23 -24 29 -41 25 -73 -54 -145 -114 -105 -49 32 -56 95 -15
136 21 21 70 26 100 10z"/>
<path d="M3521 423 c-14 -9 -21 -11 -17 -5 5 9 -5 12 -33 12 l-41 0 0 -155 0
-155 40 0 40 0 0 100 c0 87 3 103 20 120 11 11 29 20 40 20 17 0 20 7 20 40 0
35 -3 40 -23 40 -12 0 -33 -8 -46 -17z"/>
<path d="M3914 406 c-59 -59 -36 -117 61 -154 53 -21 65 -45 32 -66 -15 -9
-22 -7 -37 12 -25 31 -90 32 -90 1 0 -11 13 -34 29 -50 26 -25 37 -29 87 -29
52 0 59 3 90 36 19 19 34 30 34 24 0 -6 12 -22 26 -35 22 -20 38 -25 80 -25
89 0 140 63 109 137 -11 25 -25 35 -74 53 -45 17 -61 28 -61 41 0 23 45 27 54
4 3 -10 19 -15 46 -15 38 0 41 2 35 23 -4 12 -20 34 -36 50 -65 60 -180 19
-182 -66 -1 -46 20 -69 88 -94 36 -13 51 -24 53 -40 5 -32 -36 -42 -59 -14
-12 14 -29 21 -53 21 -29 0 -36 4 -36 19 0 26 -51 67 -93 75 -59 11 -76 56
-21 56 15 0 24 -6 24 -15 0 -11 11 -15 40 -15 34 0 40 3 40 21 0 11 -13 34
-29 50 -24 24 -38 29 -76 29 -40 0 -52 -5 -81 -34z"/>
<path d="M4460 433 c-69 -26 -116 -106 -105 -179 7 -48 42 -97 86 -119 36 -19
112 -19 149 0 29 15 70 64 70 84 0 19 -69 12 -90 -9 -26 -26 -90 -27 -113 -2
-34 37 -22 42 99 42 l117 0 -5 48 c-6 57 -29 93 -79 121 -35 20 -96 26 -129
14z"/>
<path d="M4650 435 c0 -4 21 -37 47 -74 25 -36 46 -71 46 -76 0 -6 -23 -43
-51 -83 -29 -39 -52 -74 -52 -77 0 -3 21 -5 48 -5 46 0 48 1 79 51 l31 51 34
-51 c32 -49 34 -51 81 -51 26 0 47 2 47 5 0 3 -22 36 -48 73 -27 37 -52 73
-56 79 -4 7 10 35 32 65 21 29 45 64 52 77 11 21 10 23 -5 18 -9 -4 -32 -7
-51 -7 -29 0 -37 -6 -56 -40 -13 -22 -26 -40 -29 -40 -3 0 -15 18 -28 40 -19
34 -27 40 -56 40 -18 0 -40 3 -49 6 -9 3 -16 3 -16 -1z"/>
<path d="M2050 250 l0 -130 40 0 40 0 0 130 0 130 -40 0 -40 0 0 -130z"/>
</g>
</svg>
