<?xml version="1.0" encoding="UTF-8" standalone="no"?>
<svg
   xmlns:dc="http://purl.org/dc/elements/1.1/"
   xmlns:cc="http://creativecommons.org/ns#"
   xmlns:rdf="http://www.w3.org/1999/02/22-rdf-syntax-ns#"
   xmlns:svg="http://www.w3.org/2000/svg"
   xmlns="http://www.w3.org/2000/svg"
   xmlns:sodipodi="http://sodipodi.sourceforge.net/DTD/sodipodi-0.dtd"
   xmlns:inkscape="http://www.inkscape.org/namespaces/inkscape"
   inkscape:version="1.0 (4035a4f, 2020-05-01)"
   sodipodi:docname="wwe.svg"
   id="svg162"
   version="1.1"
   preserveAspectRatio="xMidYMid meet"
   height="143"
   width="496">
  <defs
     id="defs166" />
  <sodipodi:namedview
     inkscape:current-layer="layer5"
     inkscape:window-maximized="0"
     inkscape:window-y="23"
     inkscape:window-x="0"
     inkscape:cy="71.5"
     inkscape:cx="229.77184"
     inkscape:zoom="2.2116935"
     showgrid="false"
     id="namedview164"
     inkscape:window-height="631"
     inkscape:window-width="1337"
     inkscape:pageshadow="2"
     inkscape:pageopacity="0"
     guidetolerance="10"
     gridtolerance="10"
     objecttolerance="10"
     borderopacity="1"
     bordercolor="#666666"
     pagecolor="#ffffff" />
  <metadata
     id="metadata131">Created by potrace 1.16, written by Peter Selinger 2001-2019<rdf:RDF>
  <cc:Work
     rdf:about="">
    <dc:format>image/svg+xml</dc:format>
    <dc:type
       rdf:resource="http://purl.org/dc/dcmitype/StillImage" />
  </cc:Work>
</rdf:RDF>
</metadata>
  <g
     id="g136">
    <title
       id="title133">background</title>
    <rect
       fill="none"
       id="canvas_background"
       height="145"
       width="498"
       y="-1"
       x="-1" />
  </g>
  <g
     inkscape:label="letters"
     id="layer5"
     inkscape:groupmode="layer">
    <path
       fill="#ffffff"
       id="svg_2"
       d="m 267.12964,8.979167 c -6,1.8 -10.60001,8.5 -10.60001,15.5 0,4 1.5,3.700001 -17.09999,3.5 l -10.60001,-0.1 -7.39999,9.6 -7.40001,9.599998 -0.3,-19.099998 -0.2,-19 h -9 -9 v 38.5 38.5 h 9 9 V 72.77917 59.479167 l 2.3,4.099998 c 1.2,2.300003 4.7,8.200005 7.7,13.300003 l 5.40001,9.099998 h 10.39999 c 8,0 10.10001,-0.300003 9.5,-1.199997 -0.39999,-0.700005 -5.1,-8 -10.5,-16.200005 l -9.69999,-14.899998 2.59999,-3.100002 c 1.40001,-1.699997 6,-7.099998 10.20001,-12 l 7.59999,-8.899998 0.3,6.099998 0.30001,6.200001 h 3.39999 3.5 v 22 22 h 9 9 v -22 -22 h 3.5 3.5 v -7 -7 h -3.5 c -2.69998,0 -3.5,-0.4 -3.5,-1.799999 0,-2.6 1.20001,-4 4.30002,-4.700001 2.59997,-0.700001 2.69998,-1 2.69998,-7.1 v -6.4 l -5.69998,0.1 c -3.20001,0 -7.10001,0.5 -8.70001,0.9 z" />
    <path
       fill="#ffffff"
       id="svg_3"
       d="m 111.02963,27.279166 c -5.1,2.400002 -11.90001,7.600002 -11.2,8.400002 0.29999,0.200001 2.2,-0.299999 4.2,-1.200001 2.1,-0.799999 3.9,-1.400002 4,-1.299999 0.1,0.200001 1.20001,2.799999 2.4,5.899998 l 2.2,5.600002 3.7,-1.799999 c 7.7,-4 16.5,-1.100002 20.2,6.599998 1.60001,3.400002 2,5.5 1.60001,8.099998 -0.60001,3 -1,3.400002 -2.90001,2.800003 -1.2,-0.300003 -2.79999,-1.100002 -3.5,-1.700001 -0.7,-0.5 -1.4,-0.799999 -1.6,-0.600002 -0.2,0.200001 1.7,5.200005 4.1,11 l 4.5,10.599998 8.90001,-3.299995 c 13,-4.800003 13.19999,-5 8.59999,-6.900002 -3.29999,-1.400002 -3.7,-1.900002 -3,-3.800003 0.40001,-1.199997 0.8,-5.799995 0.8,-10.199997 0,-9.400002 -2.39999,-15.400002 -8.59999,-21.599998 -6.10001,-6.100002 -11.10001,-8.200001 -20.90001,-8.600002 -7.4,-0.4 -9.2,-0.1 -13.5,2 z" />
    <path
       fill="#ffffff"
       id="svg_4"
       d="m 184.02963,27.179168 c -1.09999,0.599998 -3,2 -4.2,3.099998 l -2.3,2 v -2.099998 c 0,-2.1 -0.39999,-2.200001 -8.5,-2.200001 h -8.5 v 29 29 h 9 9 v -18 c 0,-17.599998 0.10001,-18.200001 2.3,-20.400002 1.30001,-1.299999 4.30001,-2.699997 6.5,-3.099998 l 4.2,-0.700001 v -8.899998 -8.900002 h -2.7 c -1.6,0 -3.69999,0.6 -4.8,1.200002 z" />
    <path
       fill="#ffffff"
       id="svg_5"
       d="m 303.02963,27.279166 c -6.69998,2.299999 -10.10001,4.400002 -14.29999,9.200001 -13.39999,15.200001 -8.5,39.300003 9.60001,48.199997 4.89999,2.400002 6.89999,2.800003 14.19998,2.800003 10.39999,-0.1 15.89999,-2.300003 22.39999,-9 14.30002,-14.599998 10.10001,-40.200001 -8,-49.099998 -6.59997,-3.200001 -17.5,-4.200001 -23.89999,-2.100002 z m 15.39999,17.5 c 6.80002,3.600002 8.90003,12.200001 4.90003,19.299999 -6.70001,12 -23.80002,7 -23.80002,-7.099998 0,-10.700001 9.89999,-17 18.89999,-12.200001 z" />
    <path
       fill="#ffffff"
       id="svg_6"
       d="m 368.02963,27.579167 c -1.60001,0.9 -3.60001,2.300001 -4.19998,3.199999 -1.20001,1.400002 -1.30002,1.299999 -1.30002,-0.599998 0,-2.1 -0.39999,-2.200001 -9,-2.200001 h -9 v 29 29 h 9.5 9.5 v -18 c 0,-17.799999 0,-18.099998 2.39999,-20.5 1.40003,-1.400002 4.20002,-2.700001 6.5,-3.099998 l 4.10001,-0.700001 v -8.799999 -8.900002 h -2.69998 c -1.60001,0.1 -4.10001,0.799999 -5.80002,1.6 z" />
    <path
       fill="#ffffff"
       id="svg_7"
       d="m 398.52963,26.879167 c -9,2.9 -16.5,9.500002 -20.19998,17.6 -3.10001,6.700001 -3.10001,18 -0.10001,24.599998 3,6.599998 8.60001,12.400002 15.10001,15.599998 7.5,3.700007 19.09997,3.900007 26.29999,0.599991 6.5,-2.899986 12.29998,-8.5 15.29998,-14.599991 3.90003,-7.699997 3.90003,-7.699997 -6.59997,-7.699997 -9.20001,0 -9.30002,0 -11,2.900002 -3.40003,6 -14,6.599998 -19.30002,1.099998 -5.60001,-5.800003 -4.29999,-18.400002 2.39999,-22.299999 5.5,-3.200001 15,-1.200001 17.30002,3.700001 1.10001,2.5 1.4,2.599998 10.5,2.599998 9.29999,0 9.4,0 8.79999,-2.299999 -2.69998,-9 -9,-16.299999 -17.39999,-20 -5,-2.200001 -16.79999,-3.200001 -21.10001,-1.8 z" />
    <path
       style="fill:#ffffff"
       d="M 467.43359 26.169922 C 464.34395 26.165234 461.44297 26.553907 459.23047 27.378906 C 446.13047 32.278906 438.12891 43.778516 438.12891 57.478516 C 438.22891 73.578514 450.12971 86.279694 466.42969 87.679688 C 473.5297 88.379694 479.03046 86.879692 485.23047 82.679688 C 489.33048 79.779679 497.42929 70.07969 497.5293 67.679688 C 497.5293 67.279679 493.33008 66.978516 488.33008 66.978516 C 479.73007 66.978516 478.82892 67.178513 476.62891 69.478516 C 471.5289 74.878518 456.5293 71.079307 456.5293 64.279297 C 456.5293 63.879311 466.13047 63.478516 477.73047 63.478516 L 499.0293 63.478516 L 499.33008 57.878906 C 499.93005 46.778904 492.62891 34.579296 482.12891 29.279297 C 478.25389 27.279297 472.583 26.177734 467.43359 26.169922 z M 469.3125 36.623047 L 469.31445 36.623047 A 19.435996 20.346399 0 0 1 469.32227 36.623047 A 19.435996 20.346399 0 0 1 488.58594 54.255859 L 450.06055 54.255859 A 19.435996 20.346399 0 0 1 469.3125 36.623047 z "
       id="svg_8" />
    <path
       fill="#ffffff"
       id="svg_9"
       d="m 3.529626,29.179168 c 0,1.200001 2.6,9.799999 14.1,46.999996 l 3,9.800003 h 8.4 8.400002 l 1,-3.800003 c 4.5,-17.299995 7.299999,-27.899998 7.699997,-29.199997 0.600002,-1.400002 2.300003,4.299999 7.5,24.800003 l 2.200001,8.299995 8.5,-0.299995 8.500004,-0.300003 8.799995,-28.5 c 4.900002,-15.700001 8.900002,-28.6 8.900002,-28.799999 0,-0.1 -4.199997,-0.200001 -9.400002,-0.200001 -6.599998,0 -9.5,0.4 -9.799995,1.200001 -0.200005,0.700001 -2,7.899998 -3.900002,16 -1.900002,8.200001 -3.700001,14.799999 -4.100002,14.799999 -0.5,0 -0.799999,-0.5 -0.799999,-1.200001 0,-0.599998 -1.900002,-7.799999 -4.099998,-16 L 54.329627,27.979167 h -7.799999 -7.700001 l -4.4,16.900002 -4.299999,16.900002 -4.1,-16.700005 -4.1,-16.599998 -9.2,-0.299999 c -7,-0.200001 -9.2,0 -9.2,1 z" />
    <path
       fill="#ffffff"
       id="svg_10"
       d="m 163.62964,100.67917 c 1.59999,6 3.89999,14.5 5,19 l 2.09999,8.3 h 4.20001 4.2 l 2.89999,-11.8 2.90001,-11.7 2.89999,11.8 3,11.80001 4,-0.30001 4.10001,-0.3 4.79999,-17.5 c 2.6,-9.6 4.8,-18.1 4.8,-18.80001 0,-0.79999 -1.5,-1.19999 -4.3,-1.19999 h -4.29999 l -2.3,9.7 c -1.30001,5.4 -2.7,10.4 -3,11.1 -0.40001,0.7 -1.5,-2.2 -2.5,-6.4 -3.5,-14.9 -3.30001,-14.4 -7.10001,-14.4 -3.8,0 -3.39999,-0.7 -6.89999,13.1 -2.7,10.6 -2.30001,11 -6.2,-5.5 l -1.8,-7.6 h -4.7 -4.70001 z" />
    <path
       fill="#ffffff"
       id="svg_11"
       d="m 276.52963,95.07917 v 5 l -2.60001,-2 c -3.39999,-2.7 -9.69998,-2.8 -14.39999,-0.2 -10,5.3 -10.7,21.4 -1.09999,27.8 4.09999,2.8 12.40001,3.1 15.90001,0.69999 2,-1.39999 2.19998,-1.39999 2.19998,0 0,1.20001 1,1.60001 4,1.60001 h 4 v -19 -19 h -4 -4 z m -2.10001,11.5 c 3,3.8 2.70002,8 -0.79998,11.5 -1.60001,1.6 -3.9,2.9 -5,2.9 -7.60001,0 -11.7,-8.4 -7,-14.4 1.6,-2.1 2.89999,-2.6 6.39999,-2.6 3.5,0 4.80002,0.5 6.39999,2.6 z" />
    <path
       fill="#ffffff"
       id="svg_12"
       d="m 366.52963,108.97917 v 19 h 11.5 11.5 v -4 -4 h -7.5 -7.5 v -4 -4 h 7.5 7.5 v -4 -4 h -7.5 -7.5 v -3 -3 h 7.5 7.5 v -4 -4 h -11.5 -11.5 z" />
    <path
       fill="#ffffff"
       id="svg_13"
       d="m 230.52963,97.67917 c -1.7,1.2 -2.5,1.3 -2.8,0.5 -0.2,-0.7 -1.9,-1.2 -3.79999,-1.2 h -3.40001 v 15.5 15.5 h 4 4 v -10.1 c 0,-12.3 0.7,-13.9 6.10001,-13.9 5.09999,0 5.89999,1.9 5.89999,14.6 v 9.4 h 4 4 v -11.5 c 0,-12.4 -1,-16 -5.2,-18.9 -3,-2.1 -9.69999,-2 -12.8,0.1 z" />
    <path
       fill="#ffffff"
       id="svg_14"
       d="m 292.32965,97.57917 c -3.30002,1.7 -4.80002,4.3 -4.80002,8.1 0,4.1 1.70001,5.9 8.20001,8.7 6.29999,2.8 7.5,4 5.79999,6.1 -1.69998,2.1 -3.69998,1.9 -5.69998,-0.5 -1.20001,-1.4 -3,-2 -5.60001,-2 -3.5,0 -3.80002,0.2 -3.20001,2.2 0.39999,1.3 2,3.5 3.60001,5 2.39999,2.3 3.79998,2.8 8.29998,2.8 6,0 10,-2.7 11.20002,-7.6 1.39999,-5.7 -1.10001,-8.5 -11.70002,-12.9 -1.29998,-0.6 -2.39999,-1.7 -2.39999,-2.5 0,-2.1 4.30002,-2.6 5.10001,-0.6 0.39999,1.1 1.89999,1.6 4.5,1.6 4.20001,0 4.5,-0.5 2.70001,-4.5 -2.30002,-5.1 -10.30002,-7 -16,-3.9 z" />
    <path
       fill="#ffffff"
       id="svg_15"
       d="m 320.92962,97.37917 c -4.5,2 -8.59997,7.8 -9.09997,13 -0.70001,5.7 2.29999,12.2 7.19998,15.49999 3,2 4.39999,2.30001 10.10001,1.90001 6.29998,-0.40001 6.89999,-0.6 10.39999,-4.5 6.89999,-7.4 6,-18.6 -2,-24.3 -4.10001,-2.9 -12.10001,-3.7 -16.60001,-1.6 z m 11.60001,7.6 c 1,0.5 2.30002,2.4 2.89999,4.1 2.5,7.3 -5.39999,14.5 -11.39999,10.5 -4.89999,-3.2 -5.60001,-9.5 -1.5,-13.6 2.10001,-2.1 7,-2.6 10,-1 z" />
    <path
       fill="#ffffff"
       id="svg_16"
       d="m 355.62964,97.67917 c -1.4,0.9 -2.10001,1.1 -1.70002,0.5 0.5,-0.9 -0.5,-1.2 -3.29998,-1.2 h -4.10001 v 15.5 15.5 h 4 4 v -10 c 0,-8.7 0.30002,-10.3 2,-12 1.10001,-1.1 2.89999,-2 4,-2 1.70001,0 2,-0.7 2,-4 0,-3.5 -0.29999,-4 -2.29999,-4 -1.20001,0 -3.30002,0.8 -4.6,1.7 z" />
    <path
       fill="#ffffff"
       id="svg_17"
       d="m 394.92962,99.37917 c -5.89999,5.9 -3.59997,11.7 6.10001,15.4 5.30002,2.1 6.5,4.5 3.20001,6.6 -1.5,0.9 -2.20001,0.7 -3.70001,-1.2 -2.5,-3.1 -9,-3.2 -9,-0.1 0,1.1 1.30002,3.4 2.89999,5.00001 2.60001,2.5 3.70002,2.89999 8.70002,2.89999 5.20001,0 5.89999,-0.3 9,-3.6 1.89999,-1.9 3.39999,-3 3.39999,-2.4 0,0.6 1.20001,2.2 2.60001,3.5 2.20001,2 3.79998,2.5 8,2.5 8.89999,0 14,-6.3 10.89999,-13.7 -1.10001,-2.5 -2.5,-3.5 -7.39999,-5.3 -4.5,-1.7 -6.10001,-2.8 -6.10001,-4.1 0,-2.3 4.5,-2.7 5.39999,-0.4 0.30002,1 1.90003,1.5 4.60001,1.5 3.80002,0 4.10001,-0.2 3.5,-2.3 -0.39999,-1.2 -2,-3.4 -3.60001,-5 -6.5,-6 -18,-1.9 -18.19998,6.6 -0.1,4.6 2,6.9 8.79999,9.4 3.60001,1.3 5.10001,2.4 5.30002,4 0.5,3.2 -3.60001,4.2 -5.90003,1.4 -1.19998,-1.4 -2.89999,-2.1 -5.29998,-2.1 -2.9,0 -3.60001,-0.4 -3.60001,-1.9 0,-2.6 -5.10001,-6.7 -9.29999,-7.5 -5.89999,-1.1 -7.6,-5.6 -2.1,-5.6 1.5,0 2.39999,0.6 2.39999,1.5 0,1.1 1.10001,1.5 4,1.5 3.39999,0 4,-0.3 4,-2.1 0,-1.09999 -1.29999,-3.4 -2.89999,-5 -2.4,-2.4 -3.79999,-2.9 -7.60001,-2.9 -4,0 -5.19998,0.5 -8.10001,3.4 z" />
    <path
       inkscape:transform-center-x="10.399271"
       d="m 454.13867,96.068359 c -1.74023,-0.03516 -3.37187,0.161332 -4.60937,0.611329 -6.89999,2.600009 -11.60001,10.600392 -10.5,17.900392 0.70001,4.8 4.19961,9.69844 8.59961,11.89844 3.6,1.89999 11.20041,1.89999 14.90039,0 2.89999,-1.5 7,-6.39844 7,-8.39844 0,-1.9 -6.89999,-1.20156 -9,0.89844 -2.60001,2.6 -8.99884,2.70117 -11.29883,0.20117 -3.39999,-3.7 -2.20157,-4.20117 9.89844,-4.20117 h 11.70117 l -0.5,-4.79883 c -0.60001,-5.7 -2.90039,-9.29961 -7.90039,-12.099612 -2.1875,-1.25 -5.39063,-1.953122 -8.29102,-2.011719 z m 1.16211,5.437501 a 10.311569,10.433639 0 0 1 0.006,0 10.311569,10.433639 0 0 1 10.2207,9.04297 h -20.43945 a 10.311569,10.433639 0 0 1 10.21289,-9.04297 z"
       style="fill:#ffffff"
       id="svg_18" />
    <path
       fill="#ffffff"
       id="svg_19"
       d="m 468.52963,96.47917 c 0,0.4 2.10001,3.7 4.70001,7.4 2.5,3.6 4.60001,7.1 4.60001,7.6 0,0.6 -2.30002,4.3 -5.10001,8.3 -2.89999,3.9 -5.20001,7.4 -5.20001,7.7 0,0.3 2.10001,0.5 4.80002,0.5 4.59997,0 4.79999,-0.10001 7.89999,-5.1 l 3.10001,-5.1 3.39999,5.1 c 3.19998,4.9 3.4,5.1 8.10001,5.1 2.59997,0 4.69998,-0.2 4.69998,-0.5 0,-0.3 -2.19998,-3.6 -4.79999,-7.3 -2.70001,-3.7 -5.20001,-7.3 -5.6,-7.9 -0.4,-0.7 1,-3.5 3.20001,-6.5 2.09997,-2.9 4.5,-6.4 5.19998,-7.7 1.10001,-2.1 1,-2.3 -0.5,-1.8 -0.89999,0.39999 -3.19998,0.7 -5.10001,0.7 -2.89999,0 -3.69998,0.6 -5.59997,4 -1.30002,2.2 -2.60001,4 -2.90003,4 -0.29998,0 -1.5,-1.8 -2.79998,-4 -1.9,-3.4 -2.70002,-4 -5.60001,-4 -1.79999,0 -4,-0.30001 -4.89999,-0.6 -0.9,-0.3 -1.60001,-0.3 -1.60001,0.1 z" />
    <path
       fill="#ffffff"
       id="svg_20"
       d="m 208.52963,114.97917 v 13 h 4 4 v -13 -13 h -4 -4 z" />
    <path
       fill="#ffffff"
       id="svg_1"
       d="m 133.9302,88.06766 c 5.13775,-2.318071 12.0201,-7.408578 11.33299,-8.219678 -0.29675,-0.204777 -2.20451,0.264752 -4.21866,1.13263 -2.11253,0.766289 -3.92191,1.337408 -4.0203,1.235817 -0.0968,-0.201576 -1.15504,-2.818845 -2.30527,-5.937652 l -2.11009,-5.634493 -3.72834,1.740553 c -7.76302,3.876257 -16.51548,0.835796 -20.09178,-6.922433 -1.54539,-3.425173 -1.91172,-5.531304 -1.47017,-8.124567 0.64794,-2.990013 1.05428,-3.383563 2.94445,-2.753233 1.19504,0.319169 2.78202,1.144668 3.47234,1.755801 0.69191,0.511139 1.38702,0.822298 1.59019,0.625528 0.20318,-0.196779 -1.61657,-5.226546 -3.92343,-11.064208 l -4.32978,-10.670658 -8.95168,3.157137 c -13.07516,4.591336 -13.278325,4.788107 -8.709322,6.761484 3.277162,1.452636 3.669122,1.958973 2.938802,3.847528 -0.419164,1.193442 -0.892722,5.786449 -0.963139,10.185888 -0.150438,9.398798 2.153219,15.436439 8.253199,21.734865 6.00161,6.196846 10.96736,8.376601 20.75971,8.933381 7.39265,0.51838 9.19721,0.24723 13.53028,-1.78369 z" />
    <rect
       y="93.141296"
       x="210.55995"
       height="6.12502"
       width="5.9696846"
       id="rect1255"
       style="fill:#ffffff;fill-opacity:1;stroke-width:0.69772" />
  </g>
</svg>
