<svg width="496" height="143" xmlns="http://www.w3.org/2000/svg" preserveAspectRatio="xMidYMid meet">
 <metadata>Created by potrace 1.16, written by Peter Selinger 2001-2019</metadata>

 <g>
  <title>background</title>
  <rect fill="none" id="canvas_background" height="602" width="802" y="-1" x="-1"/>
 </g>
 <g>
  <title>Layer 1</title>
  <path fill="#ffffff" id="svg_2" d="m263.600006,11.999998c-6,1.8 -10.600006,8.5 -10.600006,15.5c0,4 1.5,3.700001 -17.099991,3.5l-10.600006,-0.1l-7.399994,9.600002l-7.400009,9.599998l-0.300003,-19.1l-0.199997,-19l-9,0l-9,0l0,38.500002l0,38.5l9,0l9,0l0,-13.200005l0,-13.299995l2.300003,4.099998c1.199997,2.300003 4.699997,8.199997 7.699997,13.300003l5.400009,9.099998l10.399994,0c8,0 10.100006,-0.300003 9.5,-1.200005c-0.399994,-0.699997 -5.100006,-8 -10.5,-16.199997l-9.699997,-14.900002l2.599991,-3.099998c1.400009,-1.700001 6,-7.099998 10.200012,-12l7.599991,-8.900002l0.300003,6.100002l0.300003,6.200001l3.399994,0l3.5,0l0,22l0,22l9,0l9,0l0,-22l0,-22l3.5,0l3.5,0l0,-7l0,-7.000002l-3.5,0c-2.699982,0 -3.5,-0.4 -3.5,-1.799999c0,-2.6 1.200012,-4 4.300018,-4.700001c2.599976,-0.700001 2.699982,-1 2.699982,-7.1l0,-6.4l-5.699982,0.1c-3.200012,0 -7.100006,0.5 -8.700012,0.9z"/>
  <path fill="#ffffff" id="svg_3" d="m107.5,30.299999c-5.099998,2.399998 -11.900002,7.599998 -11.199997,8.399998c0.299995,0.200001 2.199997,-0.299999 4.199997,-1.199997c2.099998,-0.800003 3.900002,-1.400002 4,-1.300003c0.099998,0.200001 1.200005,2.800003 2.400002,5.900002l2.199997,5.599998l3.700005,-1.799999c7.699997,-4 16.5,-1.099998 20.199997,6.600002c1.600006,3.399998 2,5.5 1.600006,8.099998c-0.600006,3 -1,3.400002 -2.900009,2.799999c-1.199997,-0.299999 -2.799988,-1.099998 -3.5,-1.700001c-0.699997,-0.5 -1.399994,-0.799999 -1.599998,-0.599998c-0.199997,0.200001 1.700005,5.199997 4.099998,11l4.5,10.599998l8.900009,-3.299995c13,-4.800003 13.199997,-5 8.599991,-6.900002c-3.299988,-1.400002 -3.699997,-1.900002 -3,-3.800003c0.400009,-1.199997 0.800003,-5.799999 0.800003,-10.199997c0,-9.400002 -2.399994,-15.400002 -8.599991,-21.600002c-6.100006,-6.099998 -11.100006,-8.199999 -20.900009,-8.599998c-7.400002,-0.400002 -9.199997,-0.1 -13.5,2z"/>
  <path fill="#ffffff" id="svg_4" d="m180.5,30.199999c-1.099991,0.6 -3,1.999998 -4.199997,3.1l-2.300003,2l0,-2.100002c0,-2.099998 -0.399994,-2.199999 -8.5,-2.199999l-8.5,0l0,29.000002l0,29l9,0l9,0l0,-18c0,-17.600002 0.100006,-18.200001 2.300003,-20.400002c1.300003,-1.299999 4.300003,-2.700001 6.5,-3.099998l4.199997,-0.700001l0,-8.900002l0,-8.9l-2.699997,0c-1.600006,0 -3.699997,0.6 -4.800003,1.200001z"/>
  <path fill="#ffffff" id="svg_5" d="m299.5,30.299999c-6.699982,2.299999 -10.100006,4.399998 -14.299988,9.200001c-13.399994,15.199997 -8.5,39.299995 9.600006,48.199997c4.899994,2.400002 6.899994,2.800003 14.199982,2.800003c10.399994,-0.099998 15.899994,-2.300003 22.399994,-9c14.300018,-14.599998 10.100006,-40.200001 -8,-49.100002c-6.599976,-3.199999 -17.5,-4.199999 -23.899994,-2.099998zm15.399994,17.5c6.800018,3.599998 8.900024,12.200001 4.900024,19.299999c-6.700012,12 -23.800018,7 -23.800018,-7.099998c0,-10.700001 9.899994,-17 18.899994,-12.200001z"/>
  <path fill="#ffffff" id="svg_6" d="m364.5,30.599998c-1.600006,0.9 -3.600006,2.299999 -4.199982,3.200001c-1.200012,1.399998 -1.300018,1.299999 -1.300018,-0.600002c0,-2.099998 -0.399994,-2.199999 -9,-2.199999l-9,0l0,29.000002l0,29l9.5,0l9.5,0l0,-18c0,-17.800003 0,-18.100002 2.399994,-20.5c1.400024,-1.400002 4.200012,-2.700001 6.5,-3.100002l4.100006,-0.700001l0,-8.799999l0,-8.9l-2.699982,0c-1.600006,0.1 -4.100006,0.800001 -5.800018,1.6z"/>
  <path fill="#ffffff" id="svg_7" d="m395,29.899998c-9,2.900002 -16.5,9.5 -20.199982,17.600002c-3.100006,6.699997 -3.100006,18 -0.100006,24.599998c3,6.599998 8.600006,12.400002 15.100006,15.599998c7.5,3.700005 19.099976,3.900002 26.299988,0.599998c6.5,-2.899994 12.299988,-8.5 15.299988,-14.599998c3.900024,-7.699997 3.900024,-7.699997 -6.599976,-7.699997c-9.200012,0 -9.300018,0 -11,2.900002c-3.400024,6 -14,6.599998 -19.300018,1.099998c-5.600006,-5.800003 -4.299988,-18.400002 2.399994,-22.300003c5.5,-3.199997 15,-1.199997 17.300018,3.700001c1.100006,2.5 1.399994,2.600002 10.5,2.600002c9.299988,0 9.399994,0 8.799988,-2.300003c-2.699982,-9 -9,-16.299999 -17.399994,-19.999998c-5,-2.200001 -16.799988,-3.200001 -21.100006,-1.800001z"/>
  <path fill="#ffffff" id="svg_8" d="m455.700012,30.399998c-13.100006,4.900002 -21.100006,16.400002 -21.100006,30.100002c0.100006,16.099998 12,28.799995 28.299988,30.199997c7.100006,0.700005 12.600006,-0.799995 18.800018,-5c4.100006,-2.900002 12.199982,-12.599998 12.299988,-15c0,-0.400002 -4.199982,-0.699997 -9.199982,-0.699997c-8.600006,0 -9.5,0.199997 -11.700012,2.5c-5.100006,5.400002 -20.100006,1.599998 -20.100006,-5.200005c0,-0.399994 9.600006,-0.799995 21.200012,-0.799995l21.299988,0l0.300018,-5.600002c0.599976,-11.099998 -6.700012,-23.299999 -17.200012,-28.599998c-6.200012,-3.200001 -17,-4.1 -22.899994,-1.900002z"/>
  <path fill="#ffffff" id="svg_9" d="m0,32.199997c0,1.200001 2.6,9.800003 14.1,47l3,9.800003l8.4,0l8.400002,0l1,-3.800003c4.5,-17.299995 7.299999,-27.899998 7.700001,-29.199997c0.599998,-1.400002 2.299999,4.299999 7.5,24.799995l2.199997,8.300003l8.5,-0.300003l8.500004,-0.299995l8.799995,-28.5c4.900002,-15.700001 8.900002,-28.600002 8.900002,-28.800001c0,-0.1 -4.199997,-0.200001 -9.400002,-0.200001c-6.599998,0 -9.5,0.4 -9.799995,1.199999c-0.200005,0.700001 -2,7.900002 -3.900002,16c-1.900002,8.200001 -3.700001,14.800003 -4.100002,14.800003c-0.5,0 -0.799999,-0.5 -0.799999,-1.200001c0,-0.600002 -1.899998,-7.799999 -4.099998,-16l-4.100002,-14.800001l-7.799999,0l-7.700001,0l-4.4,16.9l-4.299999,16.899998l-4.1,-16.699997l-4.1,-16.6l-9.2,-0.299999c-7,-0.200001 -9.2,0 -9.2,0.999998z"/>
  <path fill="#ffffff" id="svg_10" d="m160.100006,103.699997c1.599991,6 3.899994,14.5 5,19l2.099991,8.300003l4.200012,0l4.199997,0l2.899994,-11.800003l2.900009,-11.699997l2.899994,11.800003l3,11.800003l4,-0.300003l4.100006,-0.300003l4.799988,-17.5c2.600006,-9.599998 4.800003,-18.099998 4.800003,-18.800003c0,-0.799995 -1.5,-1.199997 -4.300003,-1.199997l-4.299988,0l-2.300003,9.699997c-1.300003,5.400002 -2.699997,10.400002 -3,11.100006c-0.400009,0.699997 -1.5,-2.200005 -2.5,-6.400002c-3.5,-14.900002 -3.300003,-14.400002 -7.100006,-14.400002c-3.800003,0 -3.399994,-0.699997 -6.899994,13.099998c-2.699997,10.599998 -2.300003,11 -6.199997,-5.5l-1.800003,-7.599998l-4.699997,0l-4.700012,0l2.900009,10.699997z"/>
  <path fill="#ffffff" id="svg_11" d="m273,98.099998l0,5l-2.600006,-2c-3.399994,-2.699997 -9.699982,-2.799995 -14.399994,-0.199997c-10,5.299995 -10.699997,21.400002 -1.099991,27.799995c4.099991,2.800003 12.400009,3.100006 15.900009,0.699997c2,-1.399994 2.199982,-1.399994 2.199982,0c0,1.200012 1,1.600006 4,1.600006l4,0l0,-19l0,-19l-4,0l-4,0l0,5.099998zm-2.100006,11.5c3,3.800003 2.700012,8 -0.799988,11.5c-1.600006,1.599998 -3.899994,2.900002 -5,2.900002c-7.600006,0 -11.699997,-8.400002 -7,-14.400002c1.600006,-2.099998 2.899994,-2.599998 6.399994,-2.599998c3.5,0 4.800018,0.5 6.399994,2.599998z"/>
  <path fill="#ffffff" id="svg_12" d="m363,112l0,19l11.5,0l11.5,0l0,-4l0,-4l-7.5,0l-7.5,0l0,-4l0,-4l7.5,0l7.5,0l0,-4l0,-4l-7.5,0l-7.5,0l0,-3l0,-3l7.5,0l7.5,0l0,-4l0,-4l-11.5,0l-11.5,0l0,19z"/>
  <path fill="#ffffff" id="svg_13" d="m227,100.699997c-1.699997,1.200005 -2.5,1.300003 -2.800003,0.5c-0.199997,-0.699997 -1.899994,-1.199997 -3.799988,-1.199997l-3.400009,0l0,15.5l0,15.5l4,0l4,0l0,-10.099998c0,-12.300003 0.699997,-13.900002 6.100006,-13.900002c5.099991,0 5.899994,1.900002 5.899994,14.599998l0,9.400002l4,0l4,0l0,-11.5c0,-12.400002 -1,-16 -5.199997,-18.900002c-3,-2.099998 -9.699997,-2 -12.800003,0.099998z"/>
  <path fill="#ffffff" id="svg_14" d="m288.800018,100.599998c-3.300018,1.700005 -4.800018,4.300003 -4.800018,8.099998c0,4.100006 1.700012,5.900002 8.200012,8.700005c6.299988,2.799995 7.5,4 5.799988,6.099998c-1.699982,2.099998 -3.699982,1.900002 -5.699982,-0.5c-1.200012,-1.400002 -3,-2 -5.600006,-2c-3.5,0 -3.800018,0.199997 -3.200012,2.199997c0.399994,1.300003 2,3.5 3.600006,5c2.399994,2.300003 3.799988,2.800003 8.299988,2.800003c6,0 10,-2.699997 11.200012,-7.599998c1.399994,-5.700005 -1.100006,-8.5 -11.700012,-12.900002c-1.299988,-0.599998 -2.399994,-1.699997 -2.399994,-2.5c0,-2.099998 4.300018,-2.599998 5.100006,-0.599998c0.399994,1.099998 1.899994,1.599998 4.5,1.599998c4.200012,0 4.5,-0.5 2.700012,-4.5c-2.300018,-5.099998 -10.300018,-7 -16,-3.900002z"/>
  <path fill="#ffffff" id="svg_15" d="m317.399994,100.400002c-4.5,2 -8.599976,7.799995 -9.099976,13c-0.700012,5.699997 2.299988,12.199997 7.199982,15.499992c3,2 4.399994,2.300003 10.100006,1.900009c6.299988,-0.400009 6.899994,-0.600006 10.399994,-4.5c6.899994,-7.400002 6,-18.600006 -2,-24.300003c-4.100006,-2.900002 -12.100006,-3.699997 -16.600006,-1.599998zm11.600006,7.599998c1,0.5 2.300018,2.400002 2.899994,4.099998c2.5,7.300003 -5.399994,14.5 -11.399994,10.5c-4.899994,-3.199997 -5.600006,-9.5 -1.5,-13.599998c2.100006,-2.099998 7,-2.599998 10,-1z"/>
  <path fill="#ffffff" id="svg_16" d="m352.100006,100.699997c-1.399994,0.900002 -2.100006,1.100006 -1.700012,0.5c0.5,-0.899994 -0.5,-1.199997 -3.299988,-1.199997l-4.100006,0l0,15.5l0,15.5l4,0l4,0l0,-10c0,-8.699997 0.300018,-10.300003 2,-12c1.100006,-1.099998 2.899994,-2 4,-2c1.700012,0 2,-0.699997 2,-4c0,-3.5 -0.299988,-4 -2.299988,-4c-1.200012,0 -3.300018,0.800003 -4.600006,1.699997z"/>
  <path fill="#ffffff" id="svg_17" d="m391.399994,102.400002c-5.899994,5.900002 -3.599976,11.699997 6.100006,15.400002c5.300018,2.099998 6.5,4.5 3.200012,6.599998c-1.5,0.900002 -2.200012,0.699997 -3.700012,-1.200005c-2.5,-3.099998 -9,-3.199997 -9,-0.099998c0,1.099998 1.300018,3.400002 2.899994,5.000008c2.600006,2.5 3.700012,2.899994 8.700012,2.899994c5.200012,0 5.899994,-0.300003 9,-3.599998c1.899994,-1.900002 3.399994,-3 3.399994,-2.400002c0,0.599998 1.200012,2.199997 2.600006,3.5c2.200012,2 3.799988,2.5 8,2.5c8.899994,0 14,-6.300003 10.899994,-13.699997c-1.100006,-2.5 -2.5,-3.5 -7.399994,-5.300003c-4.5,-1.699997 -6.100006,-2.800003 -6.100006,-4.099998c0,-2.300003 4.5,-2.700005 5.399994,-0.400002c0.300018,1 1.900024,1.5 4.600006,1.5c3.800018,0 4.100006,-0.199997 3.5,-2.300003c-0.399994,-1.199997 -2,-3.399994 -3.600006,-5c-6.5,-6 -18,-1.899994 -18.199982,6.600006c-0.100006,4.599998 2,6.899994 8.799988,9.399994c3.600006,1.300003 5.100006,2.400002 5.300018,4c0.5,3.200005 -3.600006,4.200005 -5.900024,1.400002c-1.199982,-1.400002 -2.899994,-2.099998 -5.299988,-2.099998c-2.899994,0 -3.600006,-0.400002 -3.600006,-1.900002c0,-2.599998 -5.100006,-6.699997 -9.299988,-7.5c-5.899994,-1.099998 -7.600006,-5.599998 -2.100006,-5.599998c1.5,0 2.399994,0.599998 2.399994,1.5c0,1.099998 1.100006,1.5 4,1.5c3.399994,0 4,-0.300003 4,-2.099998c0,-1.099998 -1.299988,-3.400002 -2.899994,-5c-2.399994,-2.400002 -3.799988,-2.900002 -7.600006,-2.900002c-4,0 -5.199982,0.5 -8.100006,3.400002z"/>
  <path fill="#ffffff" id="svg_18" d="m446,99.699997c-6.899994,2.600006 -11.600006,10.600006 -10.5,17.900002c0.700012,4.800003 4.200012,9.700005 8.600006,11.900002c3.600006,1.899994 11.200012,1.899994 14.899994,0c2.899994,-1.5 7,-6.400002 7,-8.400002c0,-1.900002 -6.899994,-1.199997 -9,0.900002c-2.600006,2.599998 -9,2.699997 -11.299988,0.199997c-3.399994,-3.699997 -2.200012,-4.199997 9.899994,-4.199997l11.700012,0l-0.5,-4.800003c-0.600006,-5.699997 -2.900024,-9.299995 -7.900024,-12.099998c-3.5,-2 -9.599976,-2.599998 -12.899994,-1.400002z"/>
  <path fill="#ffffff" id="svg_19" d="m465,99.5c0,0.400002 2.100006,3.699997 4.700012,7.400002c2.5,3.599998 4.600006,7.099998 4.600006,7.599998c0,0.599998 -2.300018,4.300003 -5.100006,8.300003c-2.899994,3.899994 -5.200012,7.399994 -5.200012,7.699997c0,0.300003 2.100006,0.5 4.800018,0.5c4.599976,0 4.799988,-0.100006 7.899994,-5.099998l3.100006,-5.099998l3.399994,5.099998c3.199982,4.900002 3.399994,5.099998 8.100006,5.099998c2.599976,0 4.699982,-0.199997 4.699982,-0.5c0,-0.300003 -2.199982,-3.599998 -4.799988,-7.300003c-2.700012,-3.699997 -5.200012,-7.299995 -5.600006,-7.899994c-0.399994,-0.700005 1,-3.5 3.200012,-6.5c2.099976,-2.900002 4.5,-6.400002 5.199982,-7.700005c1.100006,-2.099998 1,-2.299995 -0.5,-1.799995c-0.899994,0.399994 -3.199982,0.699997 -5.100006,0.699997c-2.899994,0 -3.699982,0.599998 -5.599976,4c-1.300018,2.199997 -2.600006,4 -2.900024,4c-0.299988,0 -1.5,-1.800003 -2.799988,-4c-1.899994,-3.400002 -2.700012,-4 -5.600006,-4c-1.799988,0 -4,-0.300003 -4.899994,-0.599998c-0.899994,-0.300003 -1.600006,-0.300003 -1.600006,0.099998z"/>
  <path fill="#ffffff" id="svg_20" d="m205,118l0,13l4,0l4,0l0,-13l0,-13l-4,0l-4,0l0,13z"/>
 </g>
</svg>